<?xml version="1.0" standalone="no"?>
<!DOCTYPE svg PUBLIC "-//W3C//DTD SVG 20010904//EN"
 "http://www.w3.org/TR/2001/REC-SVG-20010904/DTD/svg10.dtd">
<svg version="1.0" xmlns="http://www.w3.org/2000/svg"
 width="1em" height="1em" viewBox="0 0 429.000000 429.000000"
 preserveAspectRatio="xMidYMid meet">
<metadata>
Created by potrace 1.16, written by Peter Selinger 2001-2019
</metadata>
<g transform="translate(0.000000,429.000000) scale(0.100000,-0.100000)"
stroke="currentColor"
    fill="currentColor"
    stroke-width="0">
<path d="M1905 4273 c-735 -94 -1377 -552 -1690 -1206 -278 -582 -273 -1255
15 -1835 525 -1056 1787 -1489 2849 -976 514 248 910 692 1084 1216 106 318
148 630 118 875 -53 434 -260 912 -524 1215 -321 365 -827 630 -1346 702 -102
15 -420 20 -506 9z m-350 -1143 c50 -6 116 -17 148 -25 112 -29 328 -147 327
-180 -1 -18 -164 -237 -192 -258 l-27 -20 -58 22 c-143 56 -178 64 -294 68
-100 5 -122 3 -160 -14 -124 -55 -198 -177 -233 -382 -31 -180 -14 -424 37
-535 34 -73 116 -159 184 -193 106 -51 299 -28 455 54 38 20 70 34 72 32 20
-21 157 -226 176 -263 l25 -47 -40 -35 c-61 -53 -241 -140 -330 -159 -107 -24
-394 -17 -506 13 -247 66 -411 209 -544 472 -53 106 -64 183 -65 452 0 256 10
355 47 448 79 198 255 398 426 483 124 63 349 90 552 67z m1057 -77 c9 -32 53
-211 98 -398 104 -431 240 -973 252 -1004 5 -14 12 -21 18 -15 10 11 110 379
244 899 53 204 108 416 123 473 l27 103 248 -3 c176 -2 251 -6 259 -15 9 -9
-8 -76 -81 -305 -242 -763 -553 -1674 -612 -1793 -101 -201 -300 -376 -527
-461 -109 -41 -271 -84 -318 -84 -68 0 -97 61 -110 231 -4 49 -2 83 6 97 16
31 69 55 201 92 193 54 220 78 220 187 0 110 -36 241 -275 998 -178 566 -318
1026 -313 1031 13 12 144 22 324 23 l201 1 15 -57z"/>
</g>
</svg>
