<!DOCTYPE svg PUBLIC "-//W3C//DTD SVG 20010904//EN" "http://www.w3.org/TR/2001/REC-SVG-20010904/DTD/svg10.dtd">
<svg version="1.0" xmlns="http://www.w3.org/2000/svg" width="1em" height="1em" viewBox="0 0 12000 4720" preserveAspectRatio="xMidYMid meet">
<g id="layer101"   stroke="currentColor"
    fill="currentColor"
    stroke-width="0">
 <path d="M4570 4029 l0 -690 23 3 c13 2 23 11 25 23 2 12 16 36 32 55 17 19 30 41 30 48 0 6 5 12 10 12 6 0 10 7 10 15 0 8 5 15 10 15 6 0 10 7 10 15 0 8 5 15 10 15 6 0 10 6 10 14 0 8 3 16 8 18 9 4 41 57 49 81 3 9 9 17 14 17 5 0 9 7 9 16 0 8 5 12 10 9 6 -3 10 3 10 14 0 12 5 21 10 21 6 0 10 7 10 15 0 8 5 15 10 15 6 0 10 7 10 15 0 8 5 15 10 15 6 0 10 6 10 14 0 8 3 16 8 18 9 4 41 57 49 81 3 9 9 17 14 17 5 0 9 6 9 13 0 7 9 19 20 27 11 8 20 22 20 32 0 10 5 18 10 18 6 0 10 7 10 15 0 8 4 15 9 15 5 0 12 8 14 18 4 13 5 11 6 -5 0 -13 6 -23 11 -23 6 0 10 -7 10 -15 0 -8 5 -15 10 -15 6 0 10 -7 10 -15 0 -8 5 -15 10 -15 6 0 10 -6 10 -13 0 -7 9 -23 20 -35 11 -12 20 -25 20 -30 0 -4 8 -17 18 -28 16 -19 23 -30 55 -86 6 -13 20 -30 30 -39 9 -9 17 -22 17 -28 0 -14 60 -104 72 -109 4 -2 8 -10 8 -18 0 -8 5 -14 10 -14 6 0 10 -7 10 -15 0 -8 5 -15 10 -15 6 0 10 -7 10 -15 0 -8 5 -15 10 -15 6 0 10 -5 10 -11 0 -5 17 -36 38 -67 21 -31 41 -65 45 -74 9 -27 36 -22 47 8 7 17 9 264 8 681 -3 568 -5 655 -18 663 -9 6 -211 10 -497 10 l-483 0 0 -691z"/>
 <path d="M6540 3981 c-7 -13 -10 -295 -10 -845 l0 -826 -497 2 -497 3 -31 60 c-16 33 -33 62 -37 63 -5 2 -8 13 -8 23 0 11 -4 17 -10 14 -6 -3 -10 5 -10 19 0 13 -3 26 -7 28 -10 4 -42 57 -50 81 -3 9 -9 17 -14 17 -5 0 -9 9 -9 20 0 11 -4 20 -10 20 -5 0 -10 9 -10 20 0 11 -4 20 -8 20 -5 0 -14 16 -22 35 -8 19 -17 35 -22 35 -4 0 -8 7 -8 16 0 9 -8 28 -18 42 -11 15 -25 42 -33 60 -8 17 -16 32 -20 32 -3 0 -11 16 -19 35 -8 19 -17 35 -22 35 -4 0 -8 9 -8 19 0 11 -3 21 -8 23 -4 2 -22 34 -41 71 -19 37 -38 70 -43 73 -18 12 -58 -6 -58 -26 0 -10 -4 -22 -10 -25 -5 -3 -20 -28 -32 -55 -13 -28 -26 -50 -30 -50 -5 0 -8 -9 -8 -20 0 -11 -4 -20 -10 -20 -5 0 -10 -9 -10 -19 0 -11 -3 -21 -7 -23 -9 -3 -37 -53 -84 -146 -18 -34 -36 -65 -40 -68 -5 -3 -9 -14 -9 -25 0 -10 -4 -19 -10 -19 -5 0 -10 -9 -10 -20 0 -11 -4 -20 -10 -20 -5 0 -10 -9 -10 -19 0 -10 -6 -21 -12 -24 -7 -2 -40 -58 -73 -123 -33 -66 -63 -120 -67 -122 -5 -2 -8 -12 -8 -23 0 -18 -14 -19 -485 -19 l-485 0 0 419 c0 231 -3 426 -6 435 -10 26 -41 18 -73 -16 -56 -63 -81 -93 -81 -101 0 -21 -356 -377 -377 -377 -3 0 -15 -10 -27 -22 -12 -13 -28 -24 -35 -26 -7 -1 -20 -9 -28 -17 -8 -8 -20 -15 -27 -15 -7 0 -21 -9 -31 -20 -10 -11 -26 -20 -37 -20 -10 0 -18 -4 -18 -10 0 -5 -9 -10 -20 -10 -11 0 -20 -4 -20 -10 0 -5 -9 -10 -20 -10 -11 0 -20 -4 -20 -10 0 -5 -7 -10 -15 -10 -9 0 -18 -7 -21 -15 -4 -8 -10 -13 -14 -10 -5 3 -11 1 -15 -5 -5 -9 -97 -54 -165 -82 -14 -6 -33 -14 -42 -19 -10 -5 -27 -9 -37 -9 -11 0 -23 -4 -26 -10 -3 -6 -19 -10 -36 -10 -16 0 -29 -4 -29 -10 0 -5 -11 -10 -25 -10 -15 0 -39 -7 -55 -15 -16 -8 -60 -18 -100 -21 -39 -4 -73 -11 -76 -15 -3 -5 -29 -9 -59 -9 -30 0 -57 -4 -60 -10 -3 -5 -35 -10 -70 -10 -35 0 -67 -4 -70 -10 -3 -5 -39 -10 -80 -10 -41 0 -77 -4 -80 -10 -8 -14 -542 -14 -550 0 -3 6 -39 10 -80 10 -41 0 -77 5 -80 10 -3 6 -34 10 -69 10 -34 0 -66 4 -71 9 -6 5 -39 12 -75 14 -128 10 -270 33 -282 45 -6 6 -27 12 -45 12 -18 0 -33 5 -33 10 0 6 -13 10 -29 10 -17 0 -33 5 -36 10 -3 6 -17 10 -30 10 -13 0 -27 5 -30 10 -3 6 -17 10 -30 10 -13 0 -27 5 -30 10 -3 6 -25 10 -49 10 -23 0 -47 5 -53 11 -5 5 -34 9 -64 7 -50 -3 -54 -5 -57 -30 -2 -20 6 -36 33 -63 20 -19 43 -35 51 -35 8 0 14 -7 14 -17 0 -9 3 -14 6 -10 4 3 28 -15 55 -42 26 -26 64 -58 83 -72 20 -13 36 -27 36 -31 0 -5 5 -8 11 -8 6 0 31 -20 57 -44 26 -25 65 -57 87 -72 22 -14 56 -40 75 -56 19 -16 42 -34 50 -41 8 -7 44 -33 80 -60 36 -26 78 -57 94 -70 16 -12 34 -24 40 -26 6 -2 18 -12 27 -23 9 -10 21 -18 26 -18 6 0 16 -7 24 -16 7 -8 31 -25 53 -36 23 -12 45 -26 51 -33 15 -18 132 -95 144 -95 6 0 11 -3 11 -7 0 -5 27 -24 60 -42 33 -19 60 -39 60 -43 0 -4 7 -8 16 -8 9 0 24 -8 33 -18 17 -18 38 -31 106 -66 22 -12 49 -29 59 -39 11 -9 26 -17 33 -17 7 0 13 -4 13 -10 0 -5 9 -10 20 -10 11 0 20 -4 20 -10 0 -5 7 -10 15 -10 9 0 25 -9 37 -20 12 -11 28 -20 35 -20 7 0 13 -4 13 -10 0 -5 9 -10 20 -10 11 0 20 -4 20 -10 0 -5 9 -10 20 -10 11 0 20 -4 20 -8 0 -5 21 -20 48 -33 26 -13 48 -27 50 -31 2 -5 12 -8 23 -8 10 0 19 -4 19 -10 0 -5 9 -10 20 -10 11 0 20 -4 20 -10 0 -5 9 -10 20 -10 11 0 20 -4 20 -10 0 -5 9 -10 20 -10 11 0 20 -4 20 -10 0 -5 9 -10 20 -10 11 0 20 -4 20 -10 0 -5 9 -10 20 -10 11 0 20 -4 20 -10 0 -5 9 -10 20 -10 11 0 20 -4 20 -10 0 -5 9 -10 20 -10 11 0 20 -4 20 -10 0 -5 9 -10 20 -10 11 0 20 -4 20 -10 0 -5 6 -10 13 -10 7 0 39 -13 72 -30 33 -16 68 -30 78 -30 9 0 17 -4 17 -10 0 -5 9 -10 19 -10 11 0 23 -4 26 -10 3 -5 17 -10 31 -10 13 0 24 -4 24 -10 0 -5 9 -10 20 -10 11 0 20 -4 20 -8 0 -5 22 -15 50 -22 28 -7 50 -17 50 -22 0 -4 9 -8 19 -8 11 0 22 -4 25 -9 3 -5 38 -19 78 -32 40 -12 77 -26 82 -31 6 -4 20 -8 32 -8 13 0 26 -4 29 -10 3 -5 17 -10 30 -10 13 0 27 -4 30 -10 3 -5 17 -10 30 -10 13 0 27 -4 30 -10 3 -5 19 -10 36 -10 16 0 29 -4 29 -8 0 -5 28 -16 63 -26 34 -10 72 -22 85 -27 12 -5 47 -12 77 -15 30 -4 55 -11 55 -15 0 -5 15 -9 33 -9 18 0 37 -4 43 -9 5 -5 27 -11 49 -14 68 -10 109 -18 130 -27 60 -24 282 -62 475 -79 52 -5 258 -9 458 -10 l362 -1 0 89 c0 50 5 93 10 96 6 3 10 33 10 66 0 33 4 59 10 59 6 0 10 18 10 39 0 22 5 43 10 46 6 3 10 21 10 40 0 19 5 37 10 40 6 3 10 17 10 31 0 13 5 24 10 24 6 0 10 14 10 30 0 17 5 30 10 30 6 0 10 12 10 26 0 14 4 23 10 19 6 -4 10 5 10 19 0 14 5 26 10 26 6 0 10 7 10 15 0 8 9 30 20 50 11 20 20 42 20 50 0 8 4 15 8 15 4 0 19 22 33 50 13 27 27 50 32 50 4 0 7 7 7 15 0 8 5 15 10 15 6 0 10 7 10 15 0 8 5 15 10 15 6 0 10 7 10 15 0 8 4 15 8 15 4 0 19 18 32 40 14 22 28 40 33 40 4 0 7 5 7 11 0 6 14 24 30 39 17 15 30 31 30 34 0 4 15 21 33 39 17 18 44 46 58 62 33 37 97 95 106 95 3 0 28 23 55 50 27 28 52 50 57 50 6 0 130 87 166 117 31 26 212 123 229 123 15 -1 -45 -50 -61 -50 -7 0 -13 -4 -13 -9 0 -5 -8 -11 -17 -15 -30 -10 -129 -81 -203 -145 -19 -17 -38 -31 -43 -31 -12 0 -277 -269 -277 -281 0 -6 -13 -23 -28 -37 -15 -15 -39 -43 -52 -62 -14 -19 -32 -44 -42 -54 -10 -11 -18 -26 -18 -33 0 -7 -4 -13 -10 -13 -5 0 -10 -7 -10 -15 0 -8 -4 -15 -10 -15 -5 0 -10 -7 -10 -15 0 -8 -4 -15 -10 -15 -5 0 -10 -9 -10 -20 0 -11 -4 -20 -9 -20 -5 0 -11 -8 -14 -17 -4 -10 -22 -45 -41 -78 -20 -33 -36 -68 -36 -77 0 -10 -4 -18 -10 -18 -5 0 -10 -9 -10 -19 0 -11 -4 -23 -10 -26 -5 -3 -10 -15 -10 -26 0 -10 -4 -19 -10 -19 -5 0 -10 -11 -10 -25 0 -14 -4 -25 -10 -25 -5 0 -10 -9 -10 -20 0 -11 -4 -28 -9 -38 -60 -117 -88 -296 -76 -487 7 -123 29 -183 74 -206 14 -8 30 -20 34 -26 4 -7 16 -13 26 -13 10 0 21 -3 25 -7 3 -4 23 -13 44 -20 45 -16 397 -18 407 -3 3 6 34 10 69 10 34 0 66 4 72 9 5 5 27 11 49 14 60 8 117 22 142 35 12 7 33 12 47 12 14 0 28 5 31 10 3 6 21 10 40 10 19 0 37 4 40 10 3 5 19 10 34 10 30 0 123 25 153 41 28 14 42 11 28 -6 -7 -8 -19 -15 -26 -15 -8 0 -14 -4 -14 -10 0 -5 -10 -10 -22 -11 -30 0 -108 -40 -121 -60 -16 -25 -1 -49 31 -49 15 0 32 -4 38 -9 5 -5 29 -12 54 -15 25 -3 88 -11 140 -18 175 -23 1000 -12 1016 14 3 4 43 8 89 8 46 0 87 5 90 10 3 6 46 10 95 10 49 0 92 4 95 10 3 5 39 10 80 10 41 0 77 5 80 10 3 6 33 10 65 10 39 0 64 5 74 15 9 10 34 15 70 15 31 0 56 5 56 10 0 6 24 10 53 10 30 0 57 3 61 7 4 5 56 14 114 21 187 22 197 24 206 33 6 5 29 9 52 9 24 0 46 5 49 10 3 6 26 10 51 10 30 0 46 5 50 15 4 10 20 15 49 15 24 0 47 5 50 10 3 6 24 10 46 10 21 0 39 5 39 10 0 6 16 10 35 10 19 0 43 4 53 9 9 5 51 14 92 20 41 7 92 14 113 17 20 4 40 10 43 15 3 5 17 9 32 9 29 0 137 31 148 43 4 4 25 7 46 7 21 0 38 5 38 10 0 6 16 10 35 10 19 0 35 5 35 10 0 6 15 10 33 10 19 0 37 3 41 7 4 5 35 13 69 20 34 6 80 16 102 23 22 6 58 16 80 21 22 6 44 14 50 20 5 5 19 9 32 9 13 0 23 5 23 10 0 6 18 10 39 10 22 0 43 5 46 10 3 6 17 10 31 10 13 0 24 5 24 10 0 6 18 10 39 10 22 0 43 5 46 10 3 6 14 10 24 10 22 0 113 26 159 46 18 8 42 14 52 14 11 0 20 5 20 10 0 6 13 10 29 10 17 0 33 5 36 10 3 6 17 10 31 10 13 0 24 5 24 10 0 6 13 10 29 10 17 0 33 5 36 10 3 6 17 10 30 10 13 0 27 5 30 10 3 6 17 10 30 10 13 0 27 4 30 10 3 5 17 10 30 10 13 0 27 4 30 10 3 5 15 10 26 10 10 0 19 5 19 10 0 6 9 10 20 10 11 0 28 4 38 9 9 5 31 14 47 21 17 7 38 16 47 21 10 5 25 9 33 9 8 0 15 5 15 10 0 6 9 10 20 10 11 0 28 4 38 9 42 23 113 51 127 51 8 0 15 5 15 10 0 6 11 10 24 10 14 0 28 4 31 10 3 5 15 10 26 10 10 0 19 5 19 10 0 6 9 10 20 10 11 0 20 5 20 10 0 6 11 10 24 10 14 0 28 5 31 10 3 6 14 10 23 11 29 0 65 56 57 87 l-7 27 29 -27 c23 -22 39 -28 75 -28 26 0 50 5 53 10 3 5 14 10 25 10 30 0 102 42 139 80 l33 35 -4 115 c-2 63 -9 124 -15 135 -6 11 -16 34 -23 50 -7 17 -19 42 -26 56 -8 15 -24 46 -36 70 -13 24 -26 46 -30 47 -5 2 -8 12 -8 23 0 10 -4 19 -10 19 -5 0 -10 10 -10 23 0 59 -159 277 -202 277 -9 0 -18 4 -20 9 -5 13 -86 61 -103 61 -8 0 -15 4 -15 8 0 4 -21 13 -47 21 -27 7 -57 16 -68 20 -47 19 -94 30 -150 37 -33 4 -70 14 -83 22 -12 8 -33 12 -47 10 -14 -3 -26 0 -29 8 -3 8 -20 14 -40 14 -19 0 -38 5 -41 10 -3 6 -21 10 -40 10 -19 0 -37 5 -40 10 -3 6 -33 10 -65 10 -32 0 -62 5 -65 10 -3 6 -25 10 -49 10 -23 0 -46 4 -51 9 -6 5 -30 12 -55 15 -25 3 -88 11 -140 18 -57 7 -98 17 -103 25 -5 8 -26 13 -52 13 -25 0 -45 5 -45 10 0 6 -20 10 -44 10 -25 0 -48 5 -51 10 -3 6 -28 10 -55 10 -27 0 -52 5 -55 10 -3 6 -26 10 -51 10 -24 0 -44 5 -44 10 0 6 -22 10 -49 10 -28 0 -53 5 -56 10 -3 6 -25 10 -49 10 -23 0 -46 4 -52 9 -5 5 -29 12 -54 15 -107 13 -136 19 -144 27 -6 5 -29 9 -53 9 -24 0 -43 5 -43 10 0 6 -13 10 -29 10 -17 0 -33 5 -36 10 -3 6 -19 10 -35 10 -16 0 -32 5 -35 10 -3 6 -24 10 -46 10 -21 0 -39 5 -39 10 0 6 -18 10 -39 10 -22 0 -43 5 -46 10 -3 6 -26 10 -50 10 -24 0 -47 5 -50 10 -3 6 -26 10 -50 10 -24 0 -47 5 -50 10 -3 6 -21 10 -40 10 -19 0 -37 5 -40 10 -3 6 -17 10 -30 10 -13 0 -27 5 -30 10 -3 6 -14 10 -25 10 -19 0 -98 38 -115 55 -32 33 -50 125 -25 125 6 0 10 11 10 24 0 14 5 28 10 31 6 3 10 15 10 25 0 10 3 20 8 22 15 6 72 127 72 152 0 25 -3 26 -50 26 -27 0 -50 5 -50 10 0 6 -110 10 -310 10 -200 0 -310 4 -310 10 0 6 -70 10 -189 10 -116 0 -192 4 -196 10 -3 6 -30 10 -60 10 -30 0 -57 5 -60 10 -3 6 -24 10 -46 10 -22 0 -50 6 -62 14 -12 7 -53 22 -92 31 -38 10 -74 22 -79 27 -6 4 -20 8 -33 8 -13 0 -23 5 -23 10 0 6 -7 10 -15 10 -14 0 -53 18 -65 30 -3 3 -25 16 -50 29 -42 23 -71 42 -124 81 -64 47 -216 223 -216 249 0 6 -4 11 -9 11 -5 0 -11 8 -13 18 -3 9 -18 24 -34 32 -16 8 -35 21 -42 28 -8 7 -28 20 -45 29 -18 8 -36 22 -40 29 -11 19 -24 17 -37 -5z m1771 -1079 c-7 -2 -11 -38 -11 -93 0 -58 4 -88 10 -84 6 3 10 -5 10 -18 0 -14 7 -37 14 -53 20 -37 74 -94 91 -94 7 0 15 -4 17 -8 5 -13 192 -112 211 -112 10 0 17 -3 17 -8 0 -4 15 -13 33 -20 17 -7 40 -18 49 -23 10 -5 24 -9 32 -9 7 0 19 -7 26 -15 10 -12 10 -15 -3 -15 -9 0 -19 5 -22 10 -3 6 -17 10 -30 10 -13 0 -27 5 -30 10 -3 6 -17 10 -30 10 -13 0 -27 5 -30 10 -3 6 -14 10 -24 10 -10 0 -32 7 -47 15 -16 8 -36 15 -45 15 -9 0 -20 7 -23 16 -3 9 -13 14 -20 11 -8 -3 -17 1 -20 9 -3 8 -12 14 -21 14 -8 0 -15 4 -15 8 0 5 -12 15 -27 23 -16 8 -37 22 -47 32 -11 9 -25 17 -31 17 -20 0 -95 80 -95 101 0 10 -4 19 -10 19 -5 0 -10 9 -10 20 0 11 5 20 10 20 6 0 10 18 10 39 0 22 5 43 10 46 6 3 10 15 10 26 0 10 5 29 12 42 24 46 28 57 30 74 0 10 3 2 5 -17 3 -19 0 -36 -6 -38z m724 -618 l50 -14 -55 6 c-30 4 -57 10 -60 14 -3 4 -12 10 -20 14 -17 7 14 0 85 -20z m-2785 -602 c0 -4 -16 -26 -35 -47 -20 -21 -43 -51 -53 -67 -9 -15 -20 -28 -24 -28 -4 0 -8 -7 -8 -15 0 -8 -3 -15 -7 -15 -13 0 -45 -76 -41 -96 2 -14 13 -20 41 -22 21 -2 37 1 37 7 0 6 10 11 23 11 13 0 27 3 33 8 5 4 0 -3 -11 -14 -35 -38 -55 -64 -55 -73 0 -5 -3 -11 -8 -13 -4 -1 -28 -28 -52 -58 -25 -30 -52 -62 -60 -70 -30 -29 -61 -80 -55 -90 8 -13 112 -13 120 0 3 6 17 10 31 10 14 0 22 4 19 10 -3 6 3 10 13 10 11 0 40 12 66 26 l46 26 -19 -34 c-11 -18 -29 -43 -41 -55 -11 -12 -20 -27 -20 -33 0 -5 -3 -10 -7 -10 -12 0 -33 -51 -33 -77 0 -21 5 -23 45 -23 25 0 45 5 45 10 0 6 9 10 20 10 11 0 20 5 20 10 0 6 8 10 18 10 10 0 23 5 30 12 20 20 23 3 3 -18 -29 -30 -70 -64 -79 -64 -4 0 -14 -9 -22 -20 -8 -11 -20 -20 -26 -20 -7 0 -14 -3 -16 -7 -5 -13 -119 -87 -173 -113 -27 -14 -51 -28 -53 -32 -2 -5 -10 -8 -18 -8 -8 0 -14 -4 -14 -10 0 -5 -9 -10 -20 -10 -11 0 -20 -4 -20 -10 0 -5 -9 -10 -20 -10 -11 0 -20 -4 -20 -8 0 -5 -19 -15 -42 -22 -24 -8 -58 -22 -76 -32 -18 -10 -41 -18 -52 -18 -10 0 -21 -4 -24 -8 -3 -4 -28 -14 -55 -22 -28 -7 -51 -17 -51 -22 0 -4 -13 -8 -30 -8 -16 0 -30 -4 -30 -10 0 -5 -13 -10 -29 -10 -16 0 -31 -4 -33 -9 -1 -4 -22 -10 -45 -14 -38 -4 -43 -3 -43 14 0 11 -6 28 -12 39 -10 16 -10 24 0 40 6 11 12 33 12 50 0 17 4 38 9 48 5 9 28 58 51 107 24 50 47 91 52 93 4 2 8 12 8 23 0 10 5 19 10 19 6 0 10 7 10 15 0 8 5 15 10 15 6 0 10 7 10 15 0 8 4 15 8 15 4 0 15 12 24 28 9 15 28 41 42 57 14 17 26 33 26 38 0 4 19 27 43 50 23 23 60 65 82 92 51 63 102 115 113 115 5 0 29 21 54 48 53 55 95 92 106 92 7 0 35 22 102 80 19 16 60 45 90 64 65 40 60 38 60 28z m3005 -522 c4 -6 56 -10 123 -10 99 0 122 -3 150 -20 18 -11 40 -20 48 -20 14 0 14 -3 4 -15 -7 -9 -29 -15 -51 -15 -21 0 -41 -4 -44 -10 -3 -5 -22 -10 -41 -10 -19 0 -34 -4 -34 -10 0 -5 -20 -10 -45 -10 -25 0 -45 -4 -45 -10 0 -5 -20 -10 -44 -10 -25 0 -48 -4 -51 -10 -3 -5 -21 -10 -40 -10 -19 0 -37 -4 -40 -10 -3 -5 -26 -10 -50 -10 -24 0 -47 -4 -50 -10 -3 -5 -22 -10 -41 -10 -19 0 -34 -4 -34 -10 0 -5 -22 -10 -49 -10 -28 0 -53 -4 -56 -10 -3 -5 -30 -10 -60 -10 -30 0 -57 -4 -60 -10 -3 -5 -28 -10 -56 -10 -27 0 -49 -4 -49 -10 0 -5 -24 -10 -54 -10 -30 0 -58 -4 -61 -10 -3 -5 -30 -10 -60 -10 -30 0 -57 -4 -60 -10 -3 -5 -35 -10 -71 -10 -41 0 -63 -4 -59 -10 4 -6 -22 -10 -72 -9 l-78 1 63 15 c34 8 62 19 62 24 0 5 11 9 25 9 29 0 75 40 75 65 0 8 5 15 10 15 6 0 10 5 10 11 0 7 10 20 23 31 12 11 37 33 54 49 18 16 39 29 48 29 8 0 15 3 15 8 0 10 50 32 72 32 10 0 18 5 18 10 0 6 18 10 39 10 22 0 43 5 46 10 3 6 30 10 58 10 29 0 59 5 67 10 20 13 437 13 445 0z"/>
 </g>
<g id="layer102" fill="#ffffff" stroke="none">
 </g>

</svg>